{
	"asset":{
		"copyright":"Liuyipeng",
		"generator":"Khronos glTF Blender I/O v4.4.55",
		"version":"2.0"
	},
	"scene":0,
	"scenes":[
		{
			"name":"Scene",
			"nodes":[
				6,
				9
			]
		}
	],
	"nodes":[
		{
			"mesh":0,
			"name":"BridgeRoad",
			"translation":[
				2.0217480659484863,
				-4.0798187255859375,
				6.272177696228027
			]
		},
		{
			"mesh":1,
			"name":"BridgeRoadSurface",
			"translation":[
				2.0217480659484863,
				-4.349466323852539,
				6.272177696228027
			]
		},
		{
			"mesh":2,
			"name":"MainBeamOfTheBridge",
			"translation":[
				2.021768093109131,
				-6.165997505187988,
				6.272223472595215
			]
		},
		{
			"mesh":3,
			"name":"SteelBar",
			"translation":[
				1.822564959526062,
				-6.179945945739746,
				6.318900108337402
			]
		},
		{
			"mesh":4,
			"name":"SteelLine",
			"translation":[
				-9.72351360321045,
				13.140323638916016,
				-30.25153350830078
			]
		},
		{
			"mesh":5,
			"name":"VerticalBeam",
			"translation":[
				1.8356841802597046,
				7.634914398193359,
				5.116057395935059
			]
		},
		{
			"children":[
				0,
				1,
				2,
				3,
				4,
				5
			],
			"name":"Bridge_grp",
			"translation":[
				-1.8357051610946655,
				21.350791931152344,
				-5.116019248962402
			]
		},
		{
			"mesh":6,
			"name":"Mountain1",
			"rotation":[
				0.617426872253418,
				0.3446506857872009,
				-0.34465065598487854,
				0.6174269318580627
			],
			"translation":[
				0,
				0,
				401.30072021484375
			]
		},
		{
			"mesh":6,
			"name":"Mountain2",
			"rotation":[
				0.617426872253418,
				0.3446506857872009,
				-0.34465065598487854,
				0.6174269318580627
			],
			"translation":[
				0,
				0,
				-401.30072021484375
			]
		},
		{
			"children":[
				7,
				8
			],
			"name":"Mountain_grp_grp",
			"translation":[
				-111.20234680175781,
				-15.054237365722656,
				-23.13165283203125
			]
		}
	],
	"materials":[
		{
			"doubleSided":true,
			"name":"Concrete2",
			"normalTexture":{
				"index":0
			},
			"pbrMetallicRoughness":{
				"baseColorTexture":{
					"index":1
				},
				"metallicFactor":0,
				"roughnessFactor":0.5
			}
		},
		{
			"doubleSided":true,
			"name":"BridgeRoadSurface",
			"normalTexture":{
				"index":2
			},
			"pbrMetallicRoughness":{
				"baseColorTexture":{
					"index":3
				},
				"metallicFactor":0.19090908765792847,
				"metallicRoughnessTexture":{
					"index":4
				}
			}
		},
		{
			"doubleSided":true,
			"name":"Concrete1",
			"normalTexture":{
				"index":5
			},
			"pbrMetallicRoughness":{
				"baseColorTexture":{
					"index":6
				},
				"metallicFactor":0.5,
				"roughnessFactor":0.5
			}
		},
		{
			"doubleSided":true,
			"name":"SteelBar",
			"normalTexture":{
				"index":7
			},
			"pbrMetallicRoughness":{
				"baseColorTexture":{
					"index":8
				},
				"metallicFactor":0.7590909004211426,
				"roughnessFactor":0.4681818187236786
			}
		},
		{
			"doubleSided":true,
			"name":"SteelLine",
			"normalTexture":{
				"index":9
			},
			"pbrMetallicRoughness":{
				"baseColorTexture":{
					"index":10
				},
				"metallicFactor":0.7590909004211426,
				"metallicRoughnessTexture":{
					"index":11
				}
			}
		},
		{
			"doubleSided":true,
			"name":"SteelLineBase",
			"normalTexture":{
				"index":12
			},
			"pbrMetallicRoughness":{
				"baseColorTexture":{
					"index":13
				},
				"metallicFactor":0.7590909004211426,
				"metallicRoughnessTexture":{
					"index":14
				}
			}
		},
		{
			"doubleSided":true,
			"name":"VerticalBeam",
			"normalTexture":{
				"index":15
			},
			"pbrMetallicRoughness":{
				"baseColorTexture":{
					"index":16
				},
				"metallicFactor":0.12272727489471436,
				"metallicRoughnessTexture":{
					"index":17
				}
			}
		},
		{
			"doubleSided":true,
			"name":"Mountain",
			"normalTexture":{
				"index":18
			},
			"pbrMetallicRoughness":{
				"baseColorTexture":{
					"index":19
				},
				"metallicFactor":0
			}
		}
	],
	"meshes":[
		{
			"name":"BridgeRoad",
			"primitives":[
				{
					"attributes":{
						"POSITION":0,
						"NORMAL":1,
						"TEXCOORD_0":2
					},
					"indices":3,
					"material":0
				}
			]
		},
		{
			"name":"BridgeRoadSurface",
			"primitives":[
				{
					"attributes":{
						"POSITION":4,
						"NORMAL":5,
						"TEXCOORD_0":6
					},
					"indices":7,
					"material":1
				}
			]
		},
		{
			"name":"MainBeamOfTheBridge",
			"primitives":[
				{
					"attributes":{
						"POSITION":8,
						"NORMAL":9,
						"TEXCOORD_0":10
					},
					"indices":11,
					"material":2
				}
			]
		},
		{
			"name":"SteelBar",
			"primitives":[
				{
					"attributes":{
						"POSITION":12,
						"NORMAL":13,
						"TEXCOORD_0":14
					},
					"indices":15,
					"material":3
				}
			]
		},
		{
			"name":"SteelLine",
			"primitives":[
				{
					"attributes":{
						"POSITION":16,
						"NORMAL":17,
						"TEXCOORD_0":18
					},
					"indices":19,
					"material":4
				},
				{
					"attributes":{
						"POSITION":20,
						"NORMAL":21,
						"TEXCOORD_0":22
					},
					"indices":23,
					"material":3
				},
				{
					"attributes":{
						"POSITION":24,
						"NORMAL":25,
						"TEXCOORD_0":26
					},
					"indices":27,
					"material":5
				}
			]
		},
		{
			"name":"VerticalBeam",
			"primitives":[
				{
					"attributes":{
						"POSITION":28,
						"NORMAL":29,
						"TEXCOORD_0":30
					},
					"indices":31,
					"material":6
				},
				{
					"attributes":{
						"POSITION":32,
						"NORMAL":33,
						"TEXCOORD_0":34
					},
					"indices":35,
					"material":0
				}
			]
		},
		{
			"name":"Mountain",
			"primitives":[
				{
					"attributes":{
						"POSITION":36,
						"NORMAL":37,
						"TEXCOORD_0":38
					},
					"indices":39,
					"material":7
				}
			]
		}
	],
	"textures":[
		{
			"sampler":0,
			"source":0
		},
		{
			"sampler":0,
			"source":1
		},
		{
			"sampler":0,
			"source":2
		},
		{
			"sampler":0,
			"source":3
		},
		{
			"sampler":0,
			"source":4
		},
		{
			"sampler":0,
			"source":0
		},
		{
			"sampler":0,
			"source":5
		},
		{
			"sampler":0,
			"source":6
		},
		{
			"sampler":0,
			"source":7
		},
		{
			"sampler":0,
			"source":8
		},
		{
			"sampler":0,
			"source":9
		},
		{
			"sampler":0,
			"source":10
		},
		{
			"sampler":0,
			"source":11
		},
		{
			"sampler":0,
			"source":12
		},
		{
			"sampler":0,
			"source":13
		},
		{
			"sampler":0,
			"source":14
		},
		{
			"sampler":0,
			"source":15
		},
		{
			"sampler":0,
			"source":16
		},
		{
			"sampler":0,
			"source":17
		},
		{
			"sampler":0,
			"source":18
		}
	],
	"images":[
		{
			"mimeType":"image/jpeg",
			"name":"Concrete25_NRM_3K",
			"uri":"Textures/Concrete25_NRM_3K.jpg"
		},
		{
			"mimeType":"image/jpeg",
			"name":"Concrete25_COL_VAR2_3K",
			"uri":"Textures/Concrete25_COL_VAR2_3K.jpg"
		},
		{
			"mimeType":"image/jpeg",
			"name":"CityStreetRoadAsphaltFourLaneClean001_NRM_3K",
			"uri":"Textures/CityStreetRoadAsphaltFourLaneClean001_NRM_3K.jpg"
		},
		{
			"mimeType":"image/jpeg",
			"name":"CityStreetRoadAsphaltFourLaneClean001_COL_3K",
			"uri":"Textures/CityStreetRoadAsphaltFourLaneClean001_COL_3K.jpg"
		},
		{
			"mimeType":"image/jpeg",
			"name":"CityStreetRoadAsphaltFourLaneClean001_GLOSS_3K",
			"uri":"Textures/CityStreetRoadAsphaltFourLaneClean001_GLOSS_3K.jpg"
		},
		{
			"mimeType":"image/jpeg",
			"name":"Concrete25_COL_VAR1_3K",
			"uri":"Textures/Concrete25_COL_VAR1_3K.jpg"
		},
		{
			"mimeType":"image/jpeg",
			"name":"scratched_metal_26_72_normal",
			"uri":"Textures/scratched_metal_26_72_normal.jpg"
		},
		{
			"mimeType":"image/jpeg",
			"name":"scratched_metal_26_72_diffuse",
			"uri":"Textures/scratched_metal_26_72_diffuse.jpg"
		},
		{
			"mimeType":"image/jpeg",
			"name":"patterned_metal_26_23_normal",
			"uri":"Textures/patterned_metal_26_23_normal.jpg"
		},
		{
			"mimeType":"image/jpeg",
			"name":"patterned_metal_26_23_diffuse",
			"uri":"Textures/patterned_metal_26_23_diffuse.jpg"
		},
		{
			"mimeType":"image/jpeg",
			"name":"patterned_metal_26_23_reflection",
			"uri":"Textures/patterned_metal_26_23_reflection.jpg"
		},
		{
			"mimeType":"image/jpeg",
			"name":"blue_painted_metal_01_normal",
			"uri":"Textures/blue_painted_metal_01_normal.jpg"
		},
		{
			"mimeType":"image/jpeg",
			"name":"blue_painted_metal_01_reflection",
			"uri":"Textures/blue_painted_metal_01_reflection.jpg"
		},
		{
			"mimeType":"image/jpeg",
			"name":"blue_painted_metal_01_reflection",
			"uri":"Textures/blue_painted_metal_01_reflection-1.jpg"
		},
		{
			"mimeType":"image/jpeg",
			"name":"red_painted_metal_01_normal",
			"uri":"Textures/red_painted_metal_01_normal.jpg"
		},
		{
			"mimeType":"image/jpeg",
			"name":"red_painted_metal_01_diffuse",
			"uri":"Textures/red_painted_metal_01_diffuse.jpg"
		},
		{
			"mimeType":"image/jpeg",
			"name":"red_painted_metal_01_reflection",
			"uri":"Textures/red_painted_metal_01_reflection.jpg"
		},
		{
			"mimeType":"image/jpeg",
			"name":"T_Meadow_Hill_02_N",
			"uri":"Textures/T_Meadow_Hill_02_N.jpg"
		},
		{
			"mimeType":"image/jpeg",
			"name":"T_Meadow_Hill_02_A",
			"uri":"Textures/T_Meadow_Hill_02_A.jpg"
		}
	],
	"accessors":[
		{
			"bufferView":0,
			"componentType":5126,
			"count":64,
			"max":[
				10.454715728759766,
				0.3418787717819214,
				77.46299743652344
			],
			"min":[
				-10.454715728759766,
				-0.3418787717819214,
				-77.46299743652344
			],
			"type":"VEC3"
		},
		{
			"bufferView":1,
			"componentType":5126,
			"count":64,
			"type":"VEC3"
		},
		{
			"bufferView":2,
			"componentType":5126,
			"count":64,
			"type":"VEC2"
		},
		{
			"bufferView":3,
			"componentType":5123,
			"count":96,
			"type":"SCALAR"
		},
		{
			"bufferView":4,
			"componentType":5126,
			"count":4,
			"max":[
				9.874616622924805,
				1.33514404296875e-05,
				77.46299743652344
			],
			"min":[
				-9.874616622924805,
				-1.33514404296875e-05,
				-77.46299743652344
			],
			"type":"VEC3"
		},
		{
			"bufferView":5,
			"componentType":5126,
			"count":4,
			"type":"VEC3"
		},
		{
			"bufferView":6,
			"componentType":5126,
			"count":4,
			"type":"VEC2"
		},
		{
			"bufferView":7,
			"componentType":5123,
			"count":6,
			"type":"SCALAR"
		},
		{
			"bufferView":8,
			"componentType":5126,
			"count":204,
			"max":[
				12.353402137756348,
				1.7443246841430664,
				77.46305847167969
			],
			"min":[
				-12.691023826599121,
				-1.7443246841430664,
				-77.46305847167969
			],
			"type":"VEC3"
		},
		{
			"bufferView":9,
			"componentType":5126,
			"count":204,
			"type":"VEC3"
		},
		{
			"bufferView":10,
			"componentType":5126,
			"count":204,
			"type":"VEC2"
		},
		{
			"bufferView":11,
			"componentType":5123,
			"count":450,
			"type":"SCALAR"
		},
		{
			"bufferView":12,
			"componentType":5126,
			"count":718,
			"max":[
				11.071807861328125,
				1.5392727851867676,
				78.37388610839844
			],
			"min":[
				-11.071807861328125,
				-1.5392727851867676,
				-78.37388610839844
			],
			"type":"VEC3"
		},
		{
			"bufferView":13,
			"componentType":5126,
			"count":718,
			"type":"VEC3"
		},
		{
			"bufferView":14,
			"componentType":5126,
			"count":718,
			"type":"VEC2"
		},
		{
			"bufferView":15,
			"componentType":5123,
			"count":1512,
			"type":"SCALAR"
		},
		{
			"bufferView":16,
			"componentType":5126,
			"count":860,
			"max":[
				23.160280227661133,
				17.534412384033203,
				104.08777618408203
			],
			"min":[
				-0.03891525790095329,
				-18.024524688720703,
				-33.352622985839844
			],
			"type":"VEC3"
		},
		{
			"bufferView":17,
			"componentType":5126,
			"count":860,
			"type":"VEC3"
		},
		{
			"bufferView":18,
			"componentType":5126,
			"count":860,
			"type":"VEC2"
		},
		{
			"bufferView":19,
			"componentType":5123,
			"count":1296,
			"type":"SCALAR"
		},
		{
			"bufferView":20,
			"componentType":5126,
			"count":29478,
			"max":[
				23.407535552978516,
				17.4467716217041,
				103.36310577392578
			],
			"min":[
				-0.2720075845718384,
				-17.471660614013672,
				-32.627952575683594
			],
			"type":"VEC3"
		},
		{
			"bufferView":21,
			"componentType":5126,
			"count":29478,
			"type":"VEC3"
		},
		{
			"bufferView":22,
			"componentType":5126,
			"count":29478,
			"type":"VEC2"
		},
		{
			"bufferView":23,
			"componentType":5123,
			"count":51840,
			"type":"SCALAR"
		},
		{
			"bufferView":24,
			"componentType":5126,
			"count":7488,
			"max":[
				23.434545516967773,
				18.024524688720703,
				103.41716003417969
			],
			"min":[
				-0.3161255121231079,
				-17.972978591918945,
				-32.6820068359375
			],
			"type":"VEC3"
		},
		{
			"bufferView":25,
			"componentType":5126,
			"count":7488,
			"type":"VEC3"
		},
		{
			"bufferView":26,
			"componentType":5126,
			"count":7488,
			"type":"VEC2"
		},
		{
			"bufferView":27,
			"componentType":5123,
			"count":15552,
			"type":"SCALAR"
		},
		{
			"bufferView":28,
			"componentType":5126,
			"count":1408,
			"max":[
				12.642154693603516,
				28.728687286376953,
				6.739474773406982
			],
			"min":[
				-12.642158508300781,
				-27.307327270507812,
				-6.73958683013916
			],
			"type":"VEC3"
		},
		{
			"bufferView":29,
			"componentType":5126,
			"count":1408,
			"type":"VEC3"
		},
		{
			"bufferView":30,
			"componentType":5126,
			"count":1408,
			"type":"VEC2"
		},
		{
			"bufferView":31,
			"componentType":5123,
			"count":3420,
			"type":"SCALAR"
		},
		{
			"bufferView":32,
			"componentType":5126,
			"count":96,
			"max":[
				12.995279312133789,
				-26.76819610595703,
				8.81951904296875
			],
			"min":[
				-12.995279312133789,
				-28.728687286376953,
				-8.81951904296875
			],
			"type":"VEC3"
		},
		{
			"bufferView":33,
			"componentType":5126,
			"count":96,
			"type":"VEC3"
		},
		{
			"bufferView":34,
			"componentType":5126,
			"count":96,
			"type":"VEC2"
		},
		{
			"bufferView":35,
			"componentType":5123,
			"count":144,
			"type":"SCALAR"
		},
		{
			"bufferView":36,
			"componentType":5126,
			"count":2088,
			"max":[
				510.0000305175781,
				512.9999389648438,
				29.324630737304688
			],
			"min":[
				-512.9999389648438,
				-510.0000305175781,
				-100.0416030883789
			],
			"type":"VEC3"
		},
		{
			"bufferView":37,
			"componentType":5126,
			"count":2088,
			"type":"VEC3"
		},
		{
			"bufferView":38,
			"componentType":5126,
			"count":2088,
			"type":"VEC2"
		},
		{
			"bufferView":39,
			"componentType":5123,
			"count":11997,
			"type":"SCALAR"
		}
	],
	"bufferViews":[
		{
			"buffer":0,
			"byteLength":768,
			"byteOffset":0,
			"target":34962
		},
		{
			"buffer":0,
			"byteLength":768,
			"byteOffset":768,
			"target":34962
		},
		{
			"buffer":0,
			"byteLength":512,
			"byteOffset":1536,
			"target":34962
		},
		{
			"buffer":0,
			"byteLength":192,
			"byteOffset":2048,
			"target":34963
		},
		{
			"buffer":0,
			"byteLength":48,
			"byteOffset":2240,
			"target":34962
		},
		{
			"buffer":0,
			"byteLength":48,
			"byteOffset":2288,
			"target":34962
		},
		{
			"buffer":0,
			"byteLength":32,
			"byteOffset":2336,
			"target":34962
		},
		{
			"buffer":0,
			"byteLength":12,
			"byteOffset":2368,
			"target":34963
		},
		{
			"buffer":0,
			"byteLength":2448,
			"byteOffset":2380,
			"target":34962
		},
		{
			"buffer":0,
			"byteLength":2448,
			"byteOffset":4828,
			"target":34962
		},
		{
			"buffer":0,
			"byteLength":1632,
			"byteOffset":7276,
			"target":34962
		},
		{
			"buffer":0,
			"byteLength":900,
			"byteOffset":8908,
			"target":34963
		},
		{
			"buffer":0,
			"byteLength":8616,
			"byteOffset":9808,
			"target":34962
		},
		{
			"buffer":0,
			"byteLength":8616,
			"byteOffset":18424,
			"target":34962
		},
		{
			"buffer":0,
			"byteLength":5744,
			"byteOffset":27040,
			"target":34962
		},
		{
			"buffer":0,
			"byteLength":3024,
			"byteOffset":32784,
			"target":34963
		},
		{
			"buffer":0,
			"byteLength":10320,
			"byteOffset":35808,
			"target":34962
		},
		{
			"buffer":0,
			"byteLength":10320,
			"byteOffset":46128,
			"target":34962
		},
		{
			"buffer":0,
			"byteLength":6880,
			"byteOffset":56448,
			"target":34962
		},
		{
			"buffer":0,
			"byteLength":2592,
			"byteOffset":63328,
			"target":34963
		},
		{
			"buffer":0,
			"byteLength":353736,
			"byteOffset":65920,
			"target":34962
		},
		{
			"buffer":0,
			"byteLength":353736,
			"byteOffset":419656,
			"target":34962
		},
		{
			"buffer":0,
			"byteLength":235824,
			"byteOffset":773392,
			"target":34962
		},
		{
			"buffer":0,
			"byteLength":103680,
			"byteOffset":1009216,
			"target":34963
		},
		{
			"buffer":0,
			"byteLength":89856,
			"byteOffset":1112896,
			"target":34962
		},
		{
			"buffer":0,
			"byteLength":89856,
			"byteOffset":1202752,
			"target":34962
		},
		{
			"buffer":0,
			"byteLength":59904,
			"byteOffset":1292608,
			"target":34962
		},
		{
			"buffer":0,
			"byteLength":31104,
			"byteOffset":1352512,
			"target":34963
		},
		{
			"buffer":0,
			"byteLength":16896,
			"byteOffset":1383616,
			"target":34962
		},
		{
			"buffer":0,
			"byteLength":16896,
			"byteOffset":1400512,
			"target":34962
		},
		{
			"buffer":0,
			"byteLength":11264,
			"byteOffset":1417408,
			"target":34962
		},
		{
			"buffer":0,
			"byteLength":6840,
			"byteOffset":1428672,
			"target":34963
		},
		{
			"buffer":0,
			"byteLength":1152,
			"byteOffset":1435512,
			"target":34962
		},
		{
			"buffer":0,
			"byteLength":1152,
			"byteOffset":1436664,
			"target":34962
		},
		{
			"buffer":0,
			"byteLength":768,
			"byteOffset":1437816,
			"target":34962
		},
		{
			"buffer":0,
			"byteLength":288,
			"byteOffset":1438584,
			"target":34963
		},
		{
			"buffer":0,
			"byteLength":25056,
			"byteOffset":1438872,
			"target":34962
		},
		{
			"buffer":0,
			"byteLength":25056,
			"byteOffset":1463928,
			"target":34962
		},
		{
			"buffer":0,
			"byteLength":16704,
			"byteOffset":1488984,
			"target":34962
		},
		{
			"buffer":0,
			"byteLength":23994,
			"byteOffset":1505688,
			"target":34963
		}
	],
	"samplers":[
		{
			"magFilter":9729,
			"minFilter":9987
		}
	],
	"buffers":[
		{
			"byteLength":1529684,
			"uri":"TeachingPlatformSinglePylonCableStayedModel.bin"
		}
	]
}
